<?xml version="1.0" standalone="no"?>
<!DOCTYPE svg PUBLIC "-//W3C//DTD SVG 20010904//EN"
 "http://www.w3.org/TR/2001/REC-SVG-20010904/DTD/svg10.dtd">
<svg version="1.0" xmlns="http://www.w3.org/2000/svg"
 width="470.000000pt" height="443.000000pt" viewBox="0 0 470.000000 443.000000"
 preserveAspectRatio="xMidYMid meet">
<metadata>
Created by potrace 1.16, written by Peter Selinger 2001-2019
</metadata>
<g transform="translate(0.000000,443.000000) scale(0.100000,-0.100000)"
fill="#5f2714" stroke="none">
<path d="M1289 4188 c-126 -124 -168 -211 -169 -345 0 -29 -3 -53 -8 -53 -4 0
-44 -36 -90 -80 l-82 -80 17 42 c9 24 21 49 26 56 12 15 23 213 13 238 -6 15
-10 14 -37 -12 -104 -98 -146 -235 -119 -389 6 -35 5 -53 -3 -60 -7 -5 -20
-23 -30 -38 -18 -27 -27 -40 -74 -96 l-21 -26 10 50 c23 117 4 305 -30 305 -6
0 -29 -39 -53 -87 -42 -86 -43 -91 -43 -183 1 -63 7 -110 18 -139 22 -59 20
-83 -10 -149 -15 -31 -35 -79 -44 -107 l-18 -49 -4 124 c-3 113 -6 131 -31
183 -16 31 -33 57 -38 57 -23 0 -51 -142 -51 -253 0 -75 23 -153 62 -207 10
-15 17 -35 15 -46 -20 -105 -40 -184 -47 -184 -4 0 -8 9 -8 20 0 42 -30 128
-60 175 -18 28 -42 65 -54 82 -12 18 -27 33 -35 33 -12 0 -13 -23 -7 -136 6
-127 9 -140 38 -197 37 -70 42 -79 81 -117 27 -28 28 -30 25 -143 -3 -122 -1
-121 -44 -17 -28 69 -155 217 -176 204 -10 -6 1 -110 19 -184 20 -79 49 -123
146 -220 74 -75 74 -75 81 -140 3 -36 13 -83 21 -105 23 -66 16 -74 -14 -15
-63 123 -65 125 -169 199 -73 51 -92 60 -92 40 0 -42 70 -208 102 -243 10 -11
18 -23 18 -27 0 -9 73 -57 141 -92 61 -31 67 -40 133 -201 18 -44 13 -63 -5
-22 -7 14 -15 26 -18 26 -3 0 -26 18 -50 40 -25 22 -63 46 -85 52 -23 6 -52
19 -66 28 -72 48 -123 55 -88 12 7 -9 24 -39 38 -67 14 -27 50 -75 80 -106 46
-47 70 -62 140 -89 140 -53 153 -61 177 -109 13 -25 28 -48 35 -53 7 -4 9 -8
4 -8 -5 0 1 -11 14 -25 13 -14 21 -27 18 -30 -3 -3 -16 6 -29 20 -13 13 -28
25 -34 25 -5 0 -23 7 -38 15 -25 13 -99 29 -236 51 -34 5 -33 4 41 -68 129
-124 157 -139 315 -158 l78 -9 72 -78 c40 -43 70 -79 67 -82 -2 -2 -14 0 -27
6 -55 26 -79 32 -148 38 -41 3 -100 8 -131 11 -34 3 -58 1 -58 -5 0 -15 132
-108 196 -138 55 -26 68 -28 190 -28 113 0 133 -3 149 -18 10 -10 30 -26 44
-35 14 -9 33 -23 41 -29 8 -7 24 -20 35 -29 l20 -16 -20 7 c-40 15 -101 24
-155 25 -56 0 -210 -29 -210 -40 0 -13 147 -80 200 -91 69 -15 201 -6 262 17
51 19 41 21 166 -33 18 -8 50 -21 70 -29 l37 -14 -61 5 c-37 3 -89 0 -135 -10
-78 -16 -185 -63 -182 -80 3 -15 147 -43 223 -44 79 -1 151 17 223 56 l55 30
110 -18 c61 -9 116 -20 122 -24 6 -4 54 -13 107 -21 104 -16 117 -20 87 -30
-103 -32 -314 -180 -284 -199 23 -14 100 5 116 30 15 22 30 34 124 92 78 49
146 66 209 52 53 -11 196 -95 243 -142 22 -22 36 -27 78 -27 27 0 50 3 50 7 0
23 -164 141 -220 158 -37 11 -72 37 -63 45 4 4 55 15 113 24 58 9 140 24 182
33 65 13 85 14 123 3 25 -7 45 -16 45 -20 0 -17 98 -42 181 -47 83 -5 157 4
222 29 29 11 37 28 12 28 -8 0 -15 4 -15 8 0 27 -143 59 -285 65 l-60 2 70 24
c39 13 85 32 104 43 37 21 91 18 120 -5 9 -8 61 -12 147 -12 l132 0 86 45 c47
24 86 47 86 50 0 3 -41 14 -90 24 -107 22 -204 17 -258 -13 -37 -20 -37 -6 0
20 18 13 38 28 43 34 6 6 28 24 50 40 39 29 41 29 175 30 127 0 138 2 180 26
25 15 61 35 81 46 43 23 99 73 99 89 0 19 -276 -3 -305 -25 -5 -4 -19 -11 -29
-15 -13 -4 -9 3 13 26 17 17 31 35 31 38 0 12 65 77 85 85 11 5 49 12 85 16
123 14 138 20 206 76 101 83 162 153 133 153 -29 0 -145 -21 -164 -29 -11 -5
-41 -16 -67 -26 -27 -9 -48 -20 -48 -25 0 -8 -41 -22 -48 -16 -2 2 10 23 27
47 17 23 31 46 31 51 0 21 66 67 119 82 84 25 153 62 199 108 23 23 42 45 42
49 0 4 6 14 13 21 6 8 18 24 25 37 45 77 52 93 47 101 -6 9 -55 -9 -155 -58
-30 -15 -80 -50 -109 -79 -30 -29 -57 -53 -59 -53 -5 0 7 40 28 90 10 25 24
59 31 76 9 23 31 40 93 72 45 23 90 50 101 60 30 26 71 91 95 152 12 30 26 65
31 78 10 27 12 72 2 72 -3 0 -29 -15 -57 -32 -78 -49 -142 -114 -154 -156 -7
-20 -23 -50 -38 -67 -17 -20 -24 -24 -20 -11 4 10 11 51 17 90 12 89 29 146
43 146 6 0 41 29 78 63 64 59 118 139 118 175 0 9 7 35 15 57 15 43 20 141 7
149 -7 4 -61 -45 -123 -112 -22 -23 -67 -120 -75 -159 -13 -66 -24 -30 -24 76
l0 109 49 54 c87 96 124 213 113 363 -4 50 -11 90 -17 89 -15 -1 -113 -150
-126 -192 -6 -20 -14 -64 -18 -96 -7 -65 -31 -92 -31 -34 0 18 -5 49 -10 68
-33 110 -32 122 13 212 42 83 42 84 42 193 0 111 -27 241 -47 229 -36 -22 -77
-192 -73 -302 1 -34 -2 -65 -6 -68 -5 -3 -9 4 -9 14 0 20 -14 57 -57 152 -13
29 -22 63 -20 75 3 11 13 47 22 80 20 75 21 166 0 225 -25 72 -78 170 -92 170
-7 0 -13 -1 -13 -2 0 -2 -5 -46 -11 -98 -12 -112 -12 -172 2 -207 5 -14 8 -28
5 -30 -5 -6 -18 9 -77 92 -42 59 -48 75 -43 100 12 55 7 188 -10 234 -15 42
-55 97 -118 166 l-28 30 0 -117 c0 -93 4 -129 20 -170 11 -28 19 -53 17 -54
-1 -1 -37 28 -79 64 l-77 67 -1 55 c-1 66 -30 179 -56 216 -11 15 -26 36 -34
48 -8 12 -35 40 -60 62 -25 21 -51 45 -58 52 -7 6 -16 12 -19 12 -7 0 7 -170
17 -189 4 -9 20 -44 36 -78 16 -35 32 -63 37 -63 4 0 7 -5 7 -10 0 -10 -38 10
-67 35 -13 11 -51 37 -132 91 -29 20 -83 49 -120 64 -56 24 -81 29 -173 31
-59 1 -111 0 -114 -4 -3 -3 9 -20 27 -37 83 -77 161 -116 256 -125 109 -11
141 -18 198 -44 65 -30 169 -100 161 -109 -3 -3 -12 0 -19 6 -8 7 -58 14 -112
17 -102 6 -131 0 -240 -45 l-30 -12 45 -20 c25 -11 74 -24 110 -30 73 -12 228
-4 244 12 13 13 64 12 98 -3 25 -11 158 -132 158 -144 0 -3 -6 -1 -12 4 -7 6
-44 21 -82 33 -57 19 -83 22 -153 17 -123 -7 -131 -27 -37 -82 63 -37 152 -53
262 -49 106 5 104 6 181 -108 46 -69 52 -88 19 -64 -44 31 -104 54 -182 71
-44 9 -82 18 -85 20 -4 2 -15 -3 -26 -11 -18 -14 -17 -16 21 -55 36 -38 89
-77 139 -104 11 -6 52 -19 90 -28 148 -38 142 -34 168 -81 14 -25 31 -67 38
-95 7 -28 16 -51 21 -51 4 0 8 -4 8 -10 0 -19 -19 -10 -26 12 -6 19 -39 53
-85 86 -19 13 -161 52 -191 52 -33 0 -18 -26 60 -106 63 -65 95 -89 177 -130
l99 -51 17 -57 c10 -31 20 -80 24 -109 6 -50 5 -51 -9 -27 -8 14 -19 34 -25
45 -16 33 -82 95 -102 95 -11 0 -19 4 -19 9 0 10 -78 41 -103 41 -19 0 -21 -4
-8 -28 5 -9 15 -30 23 -47 19 -41 72 -124 79 -125 3 0 26 -19 51 -42 25 -24
65 -59 88 -79 42 -35 43 -37 50 -115 6 -77 -2 -155 -12 -124 -55 154 -55 155
-143 225 -21 17 -46 33 -56 37 -16 6 -19 2 -19 -27 0 -18 5 -37 10 -40 6 -3
10 -17 10 -30 0 -48 46 -137 118 -228 l73 -92 -5 -60 c-7 -85 -14 -123 -25
-143 -9 -15 -11 -14 -12 8 -3 45 -5 54 -13 97 -7 37 -15 51 -56 100 -5 7 -10
17 -10 23 0 5 -3 10 -7 10 -5 0 -22 14 -40 30 -18 17 -34 30 -38 30 -6 0 1
-83 17 -182 5 -38 14 -68 19 -68 5 0 9 -6 9 -13 0 -7 18 -50 40 -96 48 -100
48 -124 -4 -236 l-22 -48 1 49 c1 90 -34 192 -88 258 l-24 29 -13 -79 c-19
-111 -12 -183 32 -327 23 -78 20 -94 -42 -187 -20 -30 -40 -62 -43 -70 -4 -8
-4 -1 -1 16 3 18 6 69 7 115 1 67 -3 97 -22 147 -13 34 -27 62 -30 62 -11 0
-39 -70 -55 -140 -18 -75 -20 -160 -6 -243 12 -73 3 -96 -55 -152 -25 -23 -45
-48 -45 -54 0 -6 -6 -11 -14 -11 -8 0 -16 -3 -19 -7 -5 -10 2 10 26 77 18 48
19 68 12 165 l-7 110 -25 -30 c-61 -75 -99 -187 -109 -317 l-7 -98 -50 -50
c-27 -27 -54 -50 -59 -50 -6 0 -21 -9 -35 -20 -14 -11 -31 -20 -37 -20 -6 0
-4 6 5 13 17 13 52 64 56 81 1 6 9 30 18 54 17 48 31 202 18 202 -4 0 -26 -20
-48 -45 -22 -25 -48 -55 -57 -65 -10 -11 -18 -24 -18 -30 0 -5 -4 -10 -10 -10
-5 0 -10 -9 -10 -19 0 -11 -4 -21 -9 -23 -6 -1 -21 -48 -36 -103 -34 -134 -52
-150 -227 -205 -17 -5 -28 -5 -28 1 0 5 7 9 16 9 29 0 112 98 130 153 9 29 20
57 24 62 13 16 16 78 4 82 -18 6 -102 -57 -152 -115 -27 -31 -64 -88 -82 -127
-18 -38 -37 -80 -42 -91 -11 -23 -44 -35 -143 -53 -33 -7 -76 -16 -95 -21 -19
-5 -97 -19 -174 -31 l-138 -22 -167 27 c-185 31 -205 35 -309 66 -60 18 -75
26 -84 48 -5 15 -14 34 -19 42 -5 8 -15 27 -22 41 -33 68 -82 136 -113 157
-19 12 -34 27 -34 32 0 6 -7 10 -15 10 -8 0 -15 4 -15 8 0 5 -11 14 -25 20
-23 11 -25 10 -25 -15 0 -42 32 -145 50 -163 10 -10 25 -31 35 -47 9 -16 35
-41 56 -54 51 -31 50 -43 -1 -18 -21 10 -46 19 -55 19 -9 0 -36 9 -61 20 -51
24 -81 75 -109 188 -10 37 -26 79 -36 94 -10 14 -19 31 -19 37 0 5 -6 14 -13
18 -7 4 -23 22 -35 40 -13 17 -31 35 -42 38 -10 3 -23 18 -29 33 -7 22 -10 9
-10 -61 -1 -69 3 -97 19 -129 11 -23 20 -47 20 -53 0 -6 16 -30 36 -53 19 -23
31 -42 25 -42 -6 0 -11 4 -11 8 0 4 -16 14 -35 21 -19 7 -33 16 -30 21 3 5 -4
11 -15 15 -11 3 -37 23 -59 43 l-38 37 -6 110 c-6 114 -8 122 -62 240 -50 110
-59 111 -75 11 -12 -77 -11 -92 7 -170 11 -47 18 -86 16 -86 -6 0 -97 100
-107 118 -6 9 -10 91 -11 182 -1 152 -3 170 -26 230 -14 36 -32 66 -40 68 -10
2 -21 -15 -33 -48 -15 -41 -17 -70 -13 -153 3 -56 8 -113 11 -127 3 -14 3 -18
0 -10 -4 8 -20 34 -35 57 -16 23 -29 46 -29 52 0 6 -4 11 -10 11 -5 0 -10 6
-10 14 0 7 -7 20 -16 27 -20 16 -15 54 21 163 19 59 25 97 24 164 0 100 -10
163 -24 163 -15 0 -81 -132 -95 -191 -7 -28 -10 -73 -7 -98 3 -26 3 -40 0 -32
-3 8 -9 17 -12 20 -16 14 -55 119 -55 150 0 21 18 69 43 120 50 100 81 211 81
295 l0 60 -60 -65 c-70 -77 -100 -134 -101 -192 0 -24 -4 -52 -8 -63 -9 -21
-12 -11 -36 120 -15 79 -12 88 50 148 19 19 35 38 35 42 0 4 11 23 25 41 14
18 25 39 25 47 0 8 7 20 15 27 8 7 15 22 15 34 0 11 6 33 14 47 24 47 34 103
20 118 -2 2 -19 -8 -38 -23 -19 -14 -39 -26 -43 -26 -18 0 -60 -56 -88 -115
-15 -33 -32 -68 -37 -77 -4 -10 -9 -28 -10 -40 -1 -13 -4 24 -7 82 -7 121 -4
150 14 150 8 0 20 6 27 13 7 7 33 28 58 47 64 50 90 78 136 145 45 65 74 118
74 135 0 18 -26 11 -97 -25 -89 -46 -129 -84 -159 -151 -13 -30 -27 -54 -30
-54 -3 0 -3 8 0 17 4 9 11 49 17 90 12 86 33 143 54 143 32 0 174 84 232 138
61 56 113 118 113 134 0 19 -81 5 -159 -27 -90 -37 -114 -54 -142 -100 -27
-43 -23 -16 8 62 45 116 69 137 169 147 53 6 155 45 175 68 9 10 20 18 25 18
13 0 104 90 104 103 0 11 -97 15 -138 6 -59 -14 -140 -52 -169 -79 -49 -45
-37 -10 26 80 65 93 60 90 146 90 109 0 250 28 305 60 61 36 62 54 6 70 -58
16 -240 5 -257 -16 -6 -8 -17 -14 -24 -14 -6 0 7 20 29 45 23 25 45 45 49 45
5 0 18 11 31 25 28 30 58 31 141 9 44 -12 85 -14 155 -10 94 5 190 31 190 51
0 5 -26 21 -58 35 -50 22 -71 25 -164 24 -60 0 -108 1 -108 4 0 11 46 43 103
70 54 25 116 41 217 55 14 2 33 7 43 10 24 10 46 16 52 17 13 0 71 34 78 46 4
8 14 14 21 14 7 0 23 11 36 25 13 14 29 25 37 25 7 0 13 7 13 15 0 12 -18 15
-104 15 -117 0 -204 -21 -259 -62 -18 -14 -37 -27 -43 -29 -7 -2 -30 -19 -52
-37 -54 -44 -152 -103 -152 -91 0 5 7 12 15 15 8 4 15 12 15 20 0 8 5 14 10
14 6 0 10 9 10 20 0 11 4 20 8 20 5 0 9 6 10 13 0 6 6 30 12 52 17 58 30 169
20 178 -4 5 -27 -11 -51 -35z"/>
<path d="M2628 3473 c-21 -5 -22 -15 -3 -68 19 -51 19 -177 1 -235 -8 -25 -26
-71 -41 -103 -39 -83 -43 -188 -11 -261 29 -66 63 -90 125 -90 53 -1 53 -1 22
88 -31 89 -29 105 35 276 27 73 31 123 20 224 -7 65 -11 71 -60 122 -29 30
-56 53 -62 53 -5 -1 -17 -3 -26 -6z"/>
<path d="M1975 3443 c3 -16 9 -72 12 -126 6 -107 -7 -171 -53 -270 -19 -42
-24 -68 -24 -139 l0 -88 45 -47 c25 -25 45 -50 45 -55 0 -4 20 -8 45 -8 25 0
45 3 45 6 0 3 -7 31 -16 62 -18 62 -15 205 5 225 6 6 11 18 11 27 0 8 11 31
24 51 20 29 25 50 27 115 2 90 -14 174 -36 187 -8 4 -15 13 -15 20 -1 19 -71
67 -98 67 -22 0 -24 -3 -17 -27z"/>
<path d="M2293 3454 c-3 -9 -1 -31 5 -48 6 -17 13 -62 17 -101 5 -65 3 -79
-35 -184 -22 -63 -46 -121 -52 -128 -19 -24 -4 -142 26 -201 22 -44 36 -57 72
-73 83 -37 92 -20 61 117 -16 69 -15 73 3 112 11 23 20 48 20 57 0 8 11 38 25
67 21 44 25 66 25 148 0 87 -3 101 -25 134 -14 20 -25 39 -25 41 0 2 -16 20
-35 40 -38 37 -72 45 -82 19z"/>
<path d="M3163 2948 c-6 -7 -14 -35 -18 -63 -7 -57 -33 -178 -45 -215 -5 -14
-14 -47 -22 -73 -12 -44 -15 -48 -38 -43 -98 23 -241 45 -330 50 -58 4 -141
10 -185 14 -172 15 -635 -3 -690 -28 -11 -5 -42 -12 -70 -15 -27 -4 -57 -10
-65 -15 -8 -4 -27 -10 -41 -13 -24 -6 -27 -3 -47 66 -23 79 -62 262 -62 289 0
28 -37 41 -94 33 -181 -26 -220 -36 -225 -60 -2 -11 2 -49 8 -85 6 -36 18
-114 27 -175 9 -60 23 -139 31 -175 9 -36 17 -81 19 -101 4 -44 19 -130 34
-189 6 -25 17 -85 25 -135 7 -49 19 -110 25 -135 6 -25 20 -88 31 -140 57
-277 61 -289 109 -349 43 -53 51 -58 139 -88 51 -17 121 -33 154 -36 34 -2 80
-9 102 -16 34 -9 332 -25 415 -22 14 0 67 1 118 1 51 0 101 4 111 9 9 5 73 15
141 21 69 6 134 13 145 15 163 33 290 107 328 195 9 19 23 62 32 95 9 33 20
74 25 90 4 17 11 53 15 80 3 28 12 70 20 95 8 25 26 110 41 190 14 80 32 177
39 215 8 39 21 113 30 165 9 52 25 136 35 185 30 145 44 283 31 298 -6 8 -37
19 -68 26 -32 7 -76 19 -98 27 -67 22 -120 28 -132 12z m-1717 -198 c5 -25 14
-54 18 -65 16 -42 25 -71 31 -110 3 -22 9 -49 11 -60 4 -16 -2 -24 -30 -35
-20 -7 -36 -19 -36 -24 -2 -55 -46 143 -65 294 -5 37 7 52 40 48 15 -2 23 -15
31 -48z m1881 34 c3 -8 1 -25 -5 -37 -6 -12 -13 -42 -16 -67 -12 -116 -31
-210 -42 -210 -7 0 -26 12 -43 26 -33 27 -33 29 -11 109 6 22 16 62 22 90 15
73 34 105 64 105 13 0 27 -7 31 -16z m-581 -300 c26 -8 65 -14 87 -14 22 0 54
-4 71 -9 17 -5 54 -14 81 -19 93 -18 153 -40 190 -68 35 -26 35 -28 18 -44
-24 -23 -129 -56 -223 -70 -41 -6 -92 -16 -112 -21 -56 -14 -508 -38 -633 -33
-133 5 -335 23 -346 30 -5 2 -62 13 -127 24 -110 18 -219 50 -250 73 -9 7 -9
13 -2 22 17 20 109 61 170 75 30 7 77 19 104 27 27 8 90 19 140 25 50 5 125
13 166 18 115 13 610 1 666 -16z m-1191 -308 c28 -10 101 -28 164 -41 62 -13
114 -25 116 -27 1 -2 5 -47 8 -101 6 -91 5 -98 -11 -91 -9 4 -51 10 -92 15
-81 8 -129 17 -145 29 -5 5 -29 14 -52 21 -38 11 -43 15 -43 43 -1 17 -7 58
-15 91 -8 33 -15 71 -15 84 0 22 1 23 18 9 9 -8 40 -23 67 -32z m1675 4 c0
-16 -5 -53 -12 -82 -6 -29 -11 -57 -9 -62 5 -21 -24 -55 -53 -62 -17 -4 -37
-10 -46 -15 -17 -9 -217 -49 -247 -49 -18 0 -18 6 -10 98 4 53 11 100 15 104
4 4 41 11 82 16 87 11 207 45 235 66 31 24 45 19 45 -14z m-980 -96 c31 -2 44
-7 42 -16 -2 -7 -4 -52 -4 -100 0 -71 -3 -87 -17 -91 -23 -6 -284 14 -294 22
-7 7 -26 134 -27 180 l0 24 128 -8 c70 -5 147 -9 172 -11z m480 -77 c0 -59 -5
-99 -12 -110 -11 -13 -37 -16 -158 -18 l-145 -2 -3 101 -3 101 43 5 c47 7 119
11 216 14 l62 2 0 -93z m-1090 -176 c30 -4 65 -12 77 -19 12 -7 41 -12 65 -12
82 0 86 -4 91 -78 2 -37 10 -127 17 -200 6 -74 10 -136 7 -138 -10 -10 -186
28 -198 42 -6 8 -17 14 -23 14 -30 1 -65 51 -85 120 -19 69 -46 250 -42 284 1
4 9 5 19 1 9 -5 42 -11 72 -14z m1504 -64 c-23 -154 -73 -297 -104 -297 -10 0
-23 -6 -29 -14 -12 -14 -68 -33 -158 -54 l-43 -9 0 98 c0 54 4 101 10 104 5 3
9 44 9 92 0 47 4 90 8 94 9 9 51 18 193 40 41 7 82 16 90 20 34 19 36 10 24
-74z m-861 -14 c9 -5 9 -267 0 -341 l-6 -53 -128 3 c-74 2 -130 7 -132 13 -2
6 -3 24 -2 40 1 17 -4 68 -10 115 -7 47 -15 120 -18 163 l-6 78 147 -7 c81 -3
150 -8 155 -11z m432 -15 c-5 -28 -16 -151 -27 -315 -2 -23 -5 -44 -8 -46 -9
-9 -234 -24 -254 -17 -17 6 -19 19 -22 116 -2 60 -3 114 -4 119 0 6 2 44 4 85
l5 75 98 6 c54 3 124 6 157 7 l58 2 -7 -32z"/>
<path d="M2004 968 c-42 -33 -62 -59 -68 -92 -12 -57 50 -109 105 -88 34 12
84 -17 94 -55 10 -43 -8 -48 -70 -19 -71 32 -86 32 -124 0 -39 -32 -40 -48 -3
-39 19 4 48 -1 81 -15 69 -27 80 -26 123 13 69 61 72 104 10 157 -38 32 -61
37 -91 18 -23 -14 -65 9 -74 41 -8 32 9 35 75 15 l60 -18 29 33 c36 42 37 54
2 47 -25 -6 -60 1 -104 18 -9 4 -28 -3 -45 -16z"/>
<path d="M2298 957 c-42 -39 -58 -67 -58 -99 1 -48 58 -85 113 -72 35 7 77
-26 77 -62 0 -34 -11 -35 -66 -9 -27 14 -58 24 -69 24 -18 0 -85 -50 -85 -64
0 -3 20 -5 45 -5 24 0 60 -7 79 -16 19 -10 44 -14 58 -11 34 9 96 69 104 102
9 35 -2 53 -55 88 -39 27 -43 28 -66 13 -22 -15 -25 -14 -54 13 -44 41 -41 55
12 48 23 -3 51 -9 62 -12 14 -4 33 3 57 22 46 35 50 57 9 48 -27 -6 -69 2
-112 19 -10 4 -28 -5 -51 -27z"/>
<path d="M2594 942 c-66 -43 -74 -57 -74 -134 0 -89 51 -150 136 -164 38 -6
47 -3 98 36 57 43 67 72 16 45 -56 -29 -119 -16 -155 33 -15 20 -20 42 -20 84
1 77 12 87 74 65 66 -23 74 -22 100 14 24 33 22 43 -12 46 -12 1 -40 4 -62 8
-35 5 -48 1 -101 -33z"/>
</g>
</svg>
